PathFileType	4	(X/Y/Z)	C:\Users\Basilio\Documents\Thesis Gigler\squatting_fais\c3dfiles\019\SLS_front_pre4\markers_experimental.trc
DataRate	CameraRate	NumFrames	NumMarkers	Units	OrigDataRate	OrigDataStartFrame	OrigNumFrames
200.000000	200.000000	4	59	mm	200.000000	195	1561
Frame#	Time	LBHD			RBHD			C7			T10			CLAV			LSHO			LUUPA			LMUPA			LDUPA			LLEP			LMEP			LRAD			LUL			LRFIN			RSHO			RUPA1			RMUPA			RDUPA			RLEP			RMEP			RRAD			RUL			RUFIN			LASI			RASI			USACR			LSACR			RSACR			LTHI1			LTHI2			LTHI3			LTHI4			LLFC			LTIB1			LTIB2			LTIB3			LTIB4			LLMAL			LMMAL			LHEE			LMT1			LMT2			LMT5			RTHI			RTHI2			RTHI3			RTHI4			RLFC			RTIB1			RTIB2			RTIB3			RTIB4			RLMAL			RMMAL			RHEE			RMT1			RMT2			RMT5			FHD			
		X1	Y1	Z1	X2	Y2	Z2	X3	Y3	Z3	X4	Y4	Z4	X5	Y5	Z5	X6	Y6	Z6	X7	Y7	Z7	X8	Y8	Z8	X9	Y9	Z9	X10	Y10	Z10	X11	Y11	Z11	X12	Y12	Z12	X13	Y13	Z13	X14	Y14	Z14	X15	Y15	Z15	X16	Y16	Z16	X17	Y17	Z17	X18	Y18	Z18	X19	Y19	Z19	X20	Y20	Z20	X21	Y21	Z21	X22	Y22	Z22	X23	Y23	Z23	X24	Y24	Z24	X25	Y25	Z25	X26	Y26	Z26	X27	Y27	Z27	X28	Y28	Z28	X29	Y29	Z29	X30	Y30	Z30	X31	Y31	Z31	X32	Y32	Z32	X33	Y33	Z33	X34	Y34	Z34	X35	Y35	Z35	X36	Y36	Z36	X37	Y37	Z37	X38	Y38	Z38	X39	Y39	Z39	X40	Y40	Z40	X41	Y41	Z41	X42	Y42	Z42	X43	Y43	Z43	X44	Y44	Z44	X45	Y45	Z45	X46	Y46	Z46	X47	Y47	Z47	X48	Y48	Z48	X49	Y49	Z49	X50	Y50	Z50	X51	Y51	Z51	X52	Y52	Z52	X53	Y53	Z53	X54	Y54	Z54	X55	Y55	Z55	X56	Y56	Z56	X57	Y57	Z57	X58	Y58	Z58	X59	Y59	Z59	

196	0.975	-402.9717407226564	1687.688598632813	-893.9122314453127	-405.9449157714845	1683.058227539063	-754.1844482421876	-429.6994934082032	1512.655395507813	-816.2324218750002	-462.6102905273439	1219.012573242188	-810.167907714844	-298.4901123046876	1458.551635742188	-823.697692871094	-351.3633422851563	1495.789428710938	-972.9617309570315	-255.8034210205079	1377.358520507813	-1033.05419921875	-228.5727233886719	1363.909301757813	-993.5911254882815	-204.4340057373047	1333.555053710938	-1039.84912109375	-174.3136901855469	1259.898071289063	-1068.00927734375	-207.0864562988282	1215.604614257813	-1042.611694335938	31.18576431274415	1121.966918945313	-999.0274658203127	17.78303718566895	1111.25634765625	-1063.316162109375	98.49235534667972	1085.07080078125	-1002.824645996094	-338.6533203125001	1492.006591796875	-679.6942749023439	-262.7768859863282	1349.910400390625	-576.4737548828126	-224.6775817871094	1358.271118164063	-603.2402954101564	-207.7846832275391	1307.951904296875	-569.2640991210939	-149.0465545654297	1264.066772460938	-573.7131347656251	-186.3130035400391	1221.557006835938	-589.0349121093751	56.68784332275392	1138.355834960938	-635.3078613281251	60.74876785278322	1134.482543945313	-566.0544433593751	130.427719116211	1101.151000976563	-627.5510253906251	-304.7634582519532	1020.919982910156	-934.9107666015627	-289.0841369628907	1013.50927734375	-722.3302001953126	-459.9682922363282	1084.471801757813	-812.6984863281252	-465.2166442871095	1051.871826171875	-841.2835693359377	-460.3086242675782	1052.242309570313	-783.7032470703127	-376.9169311523438	765.3711547851564	-1011.906799316406	-342.4227905273438	686.8494262695314	-1014.762390136719	-296.1198425292969	691.1995849609376	-1001.570190429688	-370.4382019042969	633.8031616210939	-1002.268920898438	-375.9488830566407	536.4519042968751	-992.701110839844	-326.3899230957032	397.1187438964845	-968.7052001953127	-382.7074890136719	355.6328735351563	-1022.637634277344	-344.9461059570313	351.5396728515626	-1001.261291503906	-344.7382202148438	269.4762573242188	-971.1087036132815	-408.9551696777345	142.2163543701172	-998.3732910156252	-391.6553344726564	143.8587493896485	-922.1850585937502	-473.5372009277345	113.1601943969727	-948.305603027344	-267.1998901367188	63.00444793701173	-939.7141113281252	-268.0018005371094	63.80363082885744	-982.128845214844	-315.8291931152344	51.958309173584	-1034.242919921875	-331.4792175292969	816.2934570312502	-643.1421508789064	-293.4320983886719	765.8010253906251	-653.2656250000001	-266.1917419433594	762.2368774414064	-673.1835327148439	-320.4158630371094	684.1701049804689	-649.0261840820314	-359.1863708496094	522.7668457031251	-678.1167602539064	-313.4465942382813	342.4589843750001	-731.8315429687501	-366.9255371093751	256.8125305175782	-676.6062011718751	-331.2266845703126	260.5758361816407	-706.5193481445314	-337.8798522949219	217.606185913086	-746.0038452148439	-393.9937744140626	129.680404663086	-702.4503173828126	-378.7799072265626	135.7512817382813	-776.744567871094	-455.9593505859376	106.7239074707032	-750.4006958007814	-257.5343017578126	56.70790100097658	-774.8410644531252	-249.3157806396485	54.83353424072267	-732.9351196289064	-292.9524230957032	50.66656494140626	-674.4786376953126	-275.6839599609376	1726.051025390625	-751.5881958007814	
197	0.98	-403.1467590332032	1687.7041015625	-893.829528808594	-406.2014160156251	1683.075805664063	-754.1134033203126	-429.9270019531251	1512.6455078125	-816.199157714844	-462.7706298828126	1219.040771484375	-810.0935668945315	-298.6488342285157	1458.654418945313	-823.5894775390627	-351.5436706542969	1496.10986328125	-972.7100219726565	-254.9185028076172	1379.154052734375	-1032.887573242188	-227.8371124267579	1365.881225585938	-993.402038574219	-202.8955993652344	1336.070068359375	-1039.604858398438	-171.8412322998047	1263.062744140625	-1068.009887695313	-203.9093322753907	1218.038818359375	-1042.748291015625	35.26161575317384	1126.9345703125	-998.547546386719	22.22794914245606	1116.8779296875	-1063.054443359375	102.522201538086	1091.083984375	-1002.155578613281	-338.8223571777344	1492.106079101563	-679.7969970703126	-261.6473083496094	1351.457641601563	-576.4384765625001	-223.8749542236329	1360.267700195313	-603.2751464843751	-206.0523376464844	1310.1943359375	-569.1591186523439	-146.9827575683594	1267.010009765625	-573.6812744140626	-183.5247650146485	1224.968017578125	-588.9203491210939	60.60103988647462	1144.287109375	-635.5684814453126	64.76837158203126	1140.399047851563	-566.4632568359376	134.6417541503907	1108.253784179688	-627.9754638671876	-304.9013671875001	1020.926391601563	-934.8720703125002	-289.1531372070313	1013.518127441406	-722.2473754882814	-460.1192626953126	1084.446044921875	-812.6540527343752	-465.3359985351564	1051.881591796875	-841.2205200195315	-460.4047241210939	1052.249389648438	-783.671081542969	-377.0255737304688	765.4269409179689	-1011.875244140625	-342.5354003906251	686.8497314453126	-1014.675354003906	-296.1775817871094	691.1969604492189	-1001.54443359375	-370.4569091796876	633.7860107421876	-1002.229064941406	-375.9996032714844	536.3878173828126	-992.6624755859377	-326.5030822753907	397.1272888183595	-968.592468261719	-382.7848815917969	355.5833740234376	-1022.641235351563	-345.4453430175782	351.3698425292969	-1000.588989257813	-344.8865051269532	269.4510498046876	-971.035339355469	-408.9515686035157	142.2132720947266	-998.3531494140627	-391.6698608398439	143.8622436523438	-922.181579589844	-473.5862426757814	113.1979141235352	-948.3082275390627	-267.1101074218751	62.93443679809572	-939.7276000976565	-268.0679931640626	63.8233985900879	-982.1763305664065	-315.7852478027344	51.8823585510254	-1034.213134765625	-331.5139160156251	816.278991699219	-643.0433349609376	-293.5547180175782	765.7709350585939	-653.2331542968751	-266.2807312011719	762.1968383789064	-673.1319580078126	-320.5188598632813	684.1840820312501	-648.9984130859376	-359.2344970703126	522.7830810546876	-678.0755004882814	-313.4993286132813	342.5506896972657	-731.8488769531251	-367.0527648925782	256.8293151855469	-676.6106567382814	-331.2246704101563	260.5691528320313	-706.5454101562501	-337.9810791015626	217.6300964355469	-746.0433959960939	-394.3446655273439	130.0447082519532	-702.5925292968751	-378.7973937988282	135.7093963623047	-776.7412109375002	-456.0699768066407	106.7577133178711	-750.4165649414064	-257.5128173828126	56.71078491210939	-774.798767089844	-249.3071289062501	54.8649253845215	-732.9664306640626	-292.8940734863282	50.60583877563478	-674.5110473632814	-275.9341735839844	1726.105346679688	-751.5252075195314	
198	0.985	-403.4615783691407	1687.722534179688	-893.752136230469	-406.5366210937501	1683.071899414063	-754.0617675781251	-430.0672607421876	1512.630004882813	-816.128112792969	-462.8989868164064	1219.068359375	-810.0439453125002	-298.8156433105469	1458.732177734375	-823.5227050781252	-351.7744445800782	1496.400390625	-972.4322509765627	-253.9805755615235	1381.037353515625	-1032.60595703125	-226.688461303711	1367.940551757813	-993.031921386719	-201.3856811523438	1338.662841796875	-1039.337158203125	-169.3137969970703	1266.073120117188	-1068.012939453125	-200.9383850097657	1220.700805664063	-1043.022094726563	39.07752990722657	1132.120361328125	-998.0803833007815	26.58979988098145	1122.498413085938	-1062.709838867188	106.8740158081055	1097.11865234375	-1001.389221191406	-338.9752197265626	1492.451416015625	-679.8990478515626	-260.7038269042969	1353.13232421875	-576.3784179687501	-222.8902740478516	1362.419921875	-603.2816162109376	-204.5147247314454	1312.604736328125	-569.1440429687501	-144.5991363525391	1270.247436523438	-573.6493530273439	-180.6997833251953	1227.621826171875	-588.7935180664064	64.40821838378908	1150.251953125	-636.0029296875001	68.73506164550783	1146.503540039063	-566.7223510742189	139.1383514404297	1114.658203125	-627.7636718750001	-305.0605773925782	1020.942687988281	-934.7749023437502	-289.3141174316407	1013.479858398438	-722.1967773437501	-460.1656188964845	1084.4775390625	-812.587097167969	-465.6587219238282	1051.877685546875	-841.1751708984377	-460.4967346191407	1052.245971679688	-783.596374511719	-377.2271728515626	765.4224243164064	-1011.804504394531	-342.5720214843751	686.8109130859376	-1014.63525390625	-296.3154602050782	691.2717285156251	-1001.542907714844	-370.5939331054688	633.7666015625001	-1002.182189941406	-376.1068420410157	536.4515380859376	-992.6255493164065	-326.4750976562501	397.136932373047	-968.5618896484377	-382.8119812011719	355.6250610351563	-1022.524475097656	-345.0241394042969	351.5353698730469	-1001.585021972656	-344.7668457031251	269.4233093261719	-971.076110839844	-408.945526123047	142.21142578125	-998.345886230469	-391.6815185546876	143.8624725341797	-922.1633911132815	-473.5386047363282	113.1490783691407	-948.280944824219	-267.0904235839844	62.92526245117189	-939.714782714844	-267.9364929199219	63.82804107666017	-982.049499511719	-315.8224182128907	51.95279693603517	-1034.261474609375	-331.6031188964844	816.3071289062502	-643.0000610351564	-293.7313232421876	765.8139038085939	-653.1708984375001	-266.3438415527344	762.1290283203126	-672.9921264648439	-320.5750732421876	684.1416015625001	-648.9512329101564	-359.3177490234376	522.6131591796876	-678.0045166015626	-313.4617309570313	342.6357727050782	-731.7904052734376	-367.0407104492188	256.7964172363282	-676.6029052734376	-331.2989501953126	260.5541381835938	-706.5182495117189	-337.9934082031251	217.6657409667969	-745.9490356445314	-394.3561401367189	130.0504760742188	-702.5850219726564	-378.7833557128907	135.701416015625	-776.786315917969	-456.1052856445314	106.7191619873047	-750.4090576171876	-257.5171813964844	56.69959640502931	-774.804138183594	-249.2720031738282	54.82547760009767	-732.8275146484376	-292.9525146484376	50.66648864746095	-674.4710083007814	-276.2215576171876	1725.895874023438	-751.0875244140626	
199	0.99	-403.6027832031251	1687.69677734375	-893.7219848632815	-406.8492431640626	1682.952270507813	-754.0715332031251	-430.4980773925782	1512.57470703125	-816.0721435546877	-462.9921875000001	1219.055541992188	-809.9482421875002	-299.0274353027344	1458.85986328125	-823.4003906250002	-351.9631652832032	1496.693969726563	-972.233581542969	-253.0743255615235	1382.910400390625	-1032.389892578125	-225.7873840332032	1370.024291992188	-992.819519042969	-200.0700378417969	1341.190673828125	-1039.142456054688	-166.8907623291016	1269.261596679688	-1068.06640625	-198.0448303222657	1223.464721679688	-1043.245239257813	42.79085159301759	1137.587646484375	-997.6318359375002	30.74896621704102	1128.359497070313	-1062.364501953125	110.9866180419922	1103.246215820313	-1000.604553222656	-338.9905090332032	1492.459838867188	-679.9379882812501	-259.6637878417969	1354.819458007813	-576.4916381835939	-221.6286315917969	1364.3779296875	-603.4219360351564	-202.8556823730469	1315.008178710938	-569.2202148437501	-142.2977447509766	1273.54296875	-573.8508300781251	-177.9701232910157	1230.555786132813	-588.7666015625001	68.06944274902345	1156.181518554688	-636.3384399414064	72.74053192138673	1152.592895507813	-567.1466064453126	143.6148376464844	1122.135864257813	-628.6598510742189	-305.2128601074219	1020.977783203125	-934.737487792969	-289.3755798339844	1013.482421875	-722.1143798828126	-460.2931518554689	1084.489624023438	-812.569519042969	-465.6463623046876	1051.883666992188	-841.0996093750002	-460.473358154297	1052.184814453125	-783.534362792969	-377.2744445800782	765.4025268554689	-1011.72509765625	-342.7109375000001	686.8092651367189	-1014.608520507813	-296.4315490722657	691.2507934570314	-1001.492004394531	-370.7113342285157	633.8101196289064	-1002.149536132813	-376.1191406250001	536.4168701171876	-992.607360839844	-326.3801269531251	397.239227294922	-968.6314086914065	-382.8204040527344	355.5688781738282	-1022.570373535156	-345.4912719726563	351.4283447265626	-1000.627807617188	-344.8438720703126	269.4453430175782	-971.0322875976565	-408.9592590332032	142.1918334960938	-998.3533325195315	-391.695526123047	143.8194274902344	-922.1746215820315	-473.5831604003907	113.1785049438477	-948.292907714844	-267.1058959960938	62.93815231323244	-939.7564697265627	-268.0848693847657	63.76547241210939	-982.228698730469	-315.7952880859376	51.90998458862306	-1034.219116210938	-331.7704162597657	816.1020507812502	-642.9827880859376	-293.8782958984376	765.7855834960939	-653.1434936523439	-266.4701538085938	762.0941772460939	-673.0199584960939	-320.6772155761719	684.1413574218751	-648.9058837890626	-359.3404846191407	522.6776123046876	-677.9926147460939	-313.5229492187501	342.4761047363282	-731.7984619140626	-364.6052246093751	261.3363952636719	-674.4739990234376	-331.3364257812501	260.5429687500001	-706.4692382812501	-337.9777221679688	217.6482543945313	-745.9877929687501	-394.3654174804689	130.0887145996094	-702.5665283203126	-378.8852539062501	135.7127227783203	-776.7755126953127	-456.1014404296876	106.6355438232422	-750.3923339843751	-257.5284118652344	56.72486114501955	-774.805603027344	-249.3055267333985	54.79712295532228	-733.0500488281251	-292.9055786132813	50.62048721313478	-674.4769897460939	-276.5410766601563	1726.111572265625	-751.1010742187501	
